<?xml version="1.0" encoding="UTF-8" standalone="no"?>
<svg width="23px" height="13px" viewBox="0 0 23 13" version="1.1" xmlns="http://www.w3.org/2000/svg" xmlns:xlink="http://www.w3.org/1999/xlink">
    <!-- Generator: Sketch 41 (35326) - http://www.bohemiancoding.com/sketch -->
    <title>MLAustralianRulesBW</title>
    <desc>Created with Sketch.</desc>
    <defs>
        <polyline id="path-1" points="1.5 4.25 3.5 4.25 3.5 8.75 1.5 8.75"></polyline>
        <mask id="mask-2" maskContentUnits="userSpaceOnUse" maskUnits="objectBoundingBox" x="0" y="0" width="2" height="4.5" fill="white">
            <use xlink:href="#path-1"></use>
        </mask>
        <polyline id="path-3" points="20.5 8.75 18.5 8.75 18.5 4.25 20.5 4.25"></polyline>
        <mask id="mask-4" maskContentUnits="userSpaceOnUse" maskUnits="objectBoundingBox" x="0" y="0" width="2" height="4.5" fill="white">
            <use xlink:href="#path-3"></use>
        </mask>
        <rect id="path-5" x="9.75" y="4.25" width="2.5" height="4.5"></rect>
        <mask id="mask-6" maskContentUnits="userSpaceOnUse" maskUnits="objectBoundingBox" x="0" y="0" width="2.5" height="4.5" fill="white">
            <use xlink:href="#path-5"></use>
        </mask>
        <path d="M11,13 C17.1292021,13 22,10.0898509 22,6.5 C22,2.91014913 17.1292021,0 11,0 C4.87079792,0 0,2.91014913 0,6.5 C0,10.0898509 4.87079792,13 11,13 Z" id="path-7"></path>
        <mask id="mask-8" maskContentUnits="userSpaceOnUse" maskUnits="objectBoundingBox" x="0" y="0" width="22" height="13" fill="white">
            <use xlink:href="#path-7"></use>
        </mask>
        <mask id="mask-10" maskContentUnits="userSpaceOnUse" maskUnits="objectBoundingBox" x="0" y="0" width="22" height="13" fill="white">
            <use xlink:href="#path-7"></use>
        </mask>
    </defs>
    <g id="Match-Live-Icons" stroke="none" stroke-width="1" fill="none" fill-rule="evenodd">
        <g id="Match-Live-Icons-Copy-3" transform="translate(-54.000000, -599.000000)">
            <g id="Group-2-Copy-2" transform="translate(55.000000, 599.000000)">
                <path d="M16.5666923,1.5 C14.9471276,2.74701802 14,4.54989304 14,6.48730573 C14,8.43833494 14.9605722,10.2526348 16.5998612,11.5 L17,11.1398854 C15.4825709,9.9852456 14.5911701,8.30159452 14.5911701,6.48730573 C14.5911701,4.68564721 15.4701192,3.0125512 16.9693897,1.85815625 L16.5666923,1.5 Z" id="Oval" fill="#888888"></path>
                <path d="M7.56669232,1.5 C5.94712759,2.74701802 5,4.54989304 5,6.48730573 C5,8.43833494 5.9605722,10.2526348 7.59986117,11.5 L8,11.1398854 C6.48257089,9.9852456 5.59117006,8.30159452 5.59117006,6.48730573 C5.59117006,4.68564721 6.47011917,3.0125512 7.96938968,1.85815625 L7.56669232,1.5 Z" id="Oval-Copy-2" fill="#888888" transform="translate(6.500000, 6.500000) scale(-1, 1) translate(-6.500000, -6.500000) "></path>
                <use id="Rectangle" stroke="#888888" mask="url(#mask-2)" opacity="0.879999995" xlink:href="#path-1"></use>
                <use id="Rectangle-Copy" stroke="#888888" mask="url(#mask-4)" opacity="0.879999995" xlink:href="#path-3"></use>
                <use id="Rectangle-2" stroke="#888888" mask="url(#mask-6)" xlink:href="#path-5"></use>
                <mask id="mask-9" fill="white">
                    <use xlink:href="#path-7"></use>
                </mask>
                <g id="Mask-Copy" stroke="#888888" mask="url(#mask-8)" stroke-width="2">
                    <use mask="url(#mask-10)" xlink:href="#path-7"></use>
                </g>
            </g>
        </g>
    </g>
</svg>