<?xml version="1.0" encoding="UTF-8" standalone="no"?>
<svg width="23px" height="13px" viewBox="0 0 23 13" version="1.1" xmlns="http://www.w3.org/2000/svg" xmlns:xlink="http://www.w3.org/1999/xlink">
    <!-- Generator: Sketch 41 (35326) - http://www.bohemiancoding.com/sketch -->
    <title>MLAustralianRules</title>
    <desc>Created with Sketch.</desc>
    <defs>
        <path d="M11,12.2945557 C17.1292021,12.2945557 21.3071899,10.0898509 21.3071899,6.5 C21.3071899,2.91014913 17.1292021,0.697937012 11,0.697937012 C4.87079792,0.697937012 0.719299316,2.91014913 0.719299316,6.5 C0.719299316,10.0898509 4.87079792,12.2945557 11,12.2945557 Z" id="path-1"></path>
        <polyline id="path-3" points="1.5 4.25 3.5 4.25 3.5 8.75 1.5 8.75"></polyline>
        <mask id="mask-4" maskContentUnits="userSpaceOnUse" maskUnits="objectBoundingBox" x="0" y="0" width="2" height="4.5" fill="white">
            <use xlink:href="#path-3"></use>
        </mask>
        <polyline id="path-5" points="20.5 8.75 18.5 8.75 18.5 4.25 20.5 4.25"></polyline>
        <mask id="mask-6" maskContentUnits="userSpaceOnUse" maskUnits="objectBoundingBox" x="0" y="0" width="2" height="4.5" fill="white">
            <use xlink:href="#path-5"></use>
        </mask>
        <rect id="path-7" x="9.75" y="4.25" width="2.5" height="4.5"></rect>
        <mask id="mask-8" maskContentUnits="userSpaceOnUse" maskUnits="objectBoundingBox" x="0" y="0" width="2.5" height="4.5" fill="white">
            <use xlink:href="#path-7"></use>
        </mask>
        <path d="M11,13 C17.1292021,13 22,10.0898509 22,6.5 C22,2.91014913 17.1292021,0 11,0 C4.87079792,0 0,2.91014913 0,6.5 C0,10.0898509 4.87079792,13 11,13 Z" id="path-9"></path>
        <mask id="mask-10" maskContentUnits="userSpaceOnUse" maskUnits="objectBoundingBox" x="0" y="0" width="22" height="13" fill="white">
            <use xlink:href="#path-9"></use>
        </mask>
        <mask id="mask-12" maskContentUnits="userSpaceOnUse" maskUnits="objectBoundingBox" x="0" y="0" width="22" height="13" fill="white">
            <use xlink:href="#path-9"></use>
        </mask>
    </defs>
    <g id="Match-Live-Icons" stroke="none" stroke-width="1" fill="none" fill-rule="evenodd">
        <g id="Match-Live-Icons-Copy-3" transform="translate(-20.000000, -599.000000)">
            <g id="Group-2-Copy" transform="translate(21.000000, 599.000000)">
                <mask id="mask-2" fill="white">
                    <use xlink:href="#path-1"></use>
                </mask>
                <use id="Mask" fill="#5C8026" xlink:href="#path-1"></use>
                <path d="M16.5666923,1.5 C14.9471276,2.74701802 14,4.54989304 14,6.48730573 C14,8.43833494 14.9605722,10.2526348 16.5998612,11.5 L17,11.1398854 C15.4825709,9.9852456 14.5911701,8.30159452 14.5911701,6.48730573 C14.5911701,4.68564721 15.4701192,3.0125512 16.9693897,1.85815625 L16.5666923,1.5 Z" id="Oval" fill="#BDCCA8"></path>
                <path d="M7.56669232,1.5 C5.94712759,2.74701802 5,4.54989304 5,6.48730573 C5,8.43833494 5.9605722,10.2526348 7.59986117,11.5 L8,11.1398854 C6.48257089,9.9852456 5.59117006,8.30159452 5.59117006,6.48730573 C5.59117006,4.68564721 6.47011917,3.0125512 7.96938968,1.85815625 L7.56669232,1.5 Z" id="Oval-Copy-2" fill="#BDCCA8" transform="translate(6.500000, 6.500000) scale(-1, 1) translate(-6.500000, -6.500000) "></path>
                <use id="Rectangle" stroke="#FFFFFF" mask="url(#mask-4)" opacity="0.5" xlink:href="#path-3"></use>
                <use id="Rectangle-Copy" stroke="#FFFFFF" mask="url(#mask-6)" opacity="0.5" xlink:href="#path-5"></use>
                <use id="Rectangle-2" stroke="#BDCCA8" mask="url(#mask-8)" xlink:href="#path-7"></use>
                <mask id="mask-11" fill="white">
                    <use xlink:href="#path-9"></use>
                </mask>
                <g id="Mask-Copy" stroke="#FFFFFF" mask="url(#mask-10)" stroke-width="2">
                    <use mask="url(#mask-12)" xlink:href="#path-9"></use>
                </g>
            </g>
        </g>
    </g>
</svg>