<svg width="23px" height="13px" viewBox="0 0 23 13" version="1.1" xmlns="http://www.w3.org/2000/svg">
    <g id="Match-Live-Icons" stroke="none" stroke-width="1" fill="none" fill-rule="evenodd">
        <g transform="translate(-20.000000, -394.000000)" id="ML-/-Handball">
            <g transform="translate(20.000000, 394.000000)">
                <rect id="Rectangle-50-Copy-9" stroke="#FFFFFF" stroke-width="1" stroke-linecap="square" fill="#246A8C" x="0.5" y="0.5" width="22" height="12"></rect>
                <rect id="Rectangle-964" fill="#FFFFFF" opacity="0.799999952" x="11" y="1" width="1.00144928" height="11"></rect>
                <path d="M1.00231934,3 L2.96368694,3 C2.96368694,3 5.33166504,3.10339355 6.28198242,4.55664062 C6.89038086,5.60229492 6.77160645,7.58117676 6.18964479,8.60825999 C5.28094482,10.0566406 2.96368694,10 2.96368694,10 L1.00231934,10 L1.00231934,3 Z" id="Path-1131-Copy-6" fill="#6792A8" opacity="0.799999952"></path>
                <path d="M16.3515454,3.06359863 L18.312913,3.06359863 C18.312913,3.06359863 20.6808911,3.16699219 21.6312085,4.62023926 C22.2396069,5.66589355 22.1208325,7.64477539 21.5388708,8.67185862 C20.6301709,10.1202393 18.312913,10.0635986 18.312913,10.0635986 L16.3515454,10.0635986 L16.3515454,3.06359863 Z" id="Path-1131-Copy-7" fill="#6792A8" opacity="0.799999952" transform="translate(19.193229, 6.563748) scale(-1, 1) translate(-19.193229, -6.563748) "></path>
            </g>
        </g>
    </g>
</svg>