<svg width="24" height="24" viewBox="0 0 24 24" fill="none" xmlns="http://www.w3.org/2000/svg">
<path d="M17.8363 0.00494845L14.7521 0C11.2872 0 9.04805 2.29732 9.04805 5.85303V8.55167H5.94711C5.67915 8.55167 5.46216 8.76891 5.46216 9.03687V12.9469C5.46216 13.2148 5.6794 13.4318 5.94711 13.4318H9.04805V23.2981C9.04805 23.566 9.26504 23.783 9.533 23.783H13.5789C13.8468 23.783 14.0638 23.5658 14.0638 23.2981V13.4318H17.6895C17.9575 13.4318 18.1745 13.2148 18.1745 12.9469L18.176 9.03687C18.176 8.90821 18.1248 8.78499 18.0339 8.69394C17.9431 8.60289 17.8194 8.55167 17.6908 8.55167H14.0638V6.264C14.0638 5.16445 14.3258 4.60627 15.7582 4.60627L17.8358 4.60553C18.1035 4.60553 18.3205 4.38829 18.3205 4.12058V0.489897C18.3205 0.222433 18.1037 0.0054433 17.8363 0.00494845Z" fill="#545763"/>
</svg>
