<svg width="24" height="24" viewBox="0 0 24 24" fill="none" xmlns="http://www.w3.org/2000/svg">
<path d="M8.8724 21.6474C7.84399 21.6474 6.78544 21.5641 5.72056 21.3972C3.84497 21.1029 1.94635 20.1219 1.40909 19.8281L0 19.0577L1.52558 18.556C3.19324 18.0077 4.20767 17.6675 5.46344 17.1348C4.20604 16.5258 3.23696 15.4305 2.77047 14.0145L2.41556 12.9371L2.70661 12.9815C2.43062 12.7033 2.21271 12.421 2.04378 12.1643C1.44302 11.2518 1.12495 10.1368 1.19263 9.18136L1.2594 8.24093L1.82242 8.45903C1.58491 8.01051 1.41326 7.5315 1.31238 7.02943C1.06653 5.80505 1.27228 4.50428 1.89191 3.36683L2.38235 2.46649L3.03828 3.25432C5.11272 5.74627 7.7402 7.22449 10.8587 7.65724C10.7313 6.77923 10.8267 5.93188 11.1426 5.17237C11.5104 4.28801 12.1647 3.53809 13.0342 3.00356C13.9998 2.41006 15.1709 2.12248 16.3316 2.19378C17.563 2.26945 18.6811 2.73085 19.5691 3.52904C20.0027 3.41636 20.3222 3.29606 20.7541 3.13348C21.0139 3.03568 21.3086 2.92463 21.6772 2.79763L23.0359 2.3295L22.1499 4.85992C22.2083 4.85503 22.2686 4.85084 22.3315 4.84812L23.7824 4.78243L22.9248 5.95437C22.8757 6.02152 22.8632 6.04058 22.8457 6.06688C22.7766 6.17102 22.6906 6.30057 21.5136 7.87225C21.2189 8.2658 21.0718 8.77838 21.0992 9.31581C21.2035 11.3581 20.9529 13.206 20.354 14.8078C19.7875 16.3232 18.9097 17.6234 17.7452 18.6723C16.3042 19.97 14.4667 20.8585 12.2835 21.3129C11.2127 21.5357 10.0627 21.6474 8.8724 21.6474Z" fill="#545763"/>
</svg>
