<svg width="24" height="24" viewBox="0 0 24 24" fill="none" xmlns="http://www.w3.org/2000/svg">
<path d="M22.7715 5.29159C22.1264 4.14409 21.4263 3.93302 20.0009 3.85275C18.5769 3.75616 14.9962 3.716 11.8941 3.716C8.78605 3.716 5.20387 3.75616 3.78139 3.85127C2.3589 3.93302 1.65733 4.14261 1.00629 5.29159C0.341869 6.4376 0 8.41152 0 11.8867C0 11.8897 0 11.8912 0 11.8912C0 11.8941 0 11.8956 0 11.8956V11.8986C0 15.3589 0.341869 17.3477 1.00629 18.4818C1.65733 19.6293 2.35742 19.8374 3.7799 19.934C5.20387 20.0173 8.78605 20.0663 11.8941 20.0663C14.9962 20.0663 18.5769 20.0173 20.0024 19.9355C21.4278 19.8389 22.1279 19.6308 22.773 18.4833C23.4434 17.3492 23.7823 15.3604 23.7823 11.9001C23.7823 11.9001 23.7823 11.8956 23.7823 11.8927C23.7823 11.8927 23.7823 11.8897 23.7823 11.8882C23.7823 8.41152 23.4434 6.4376 22.7715 5.29159ZM8.91835 16.3503V7.432L16.3503 11.8912L8.91835 16.3503Z" fill="#545763"/>
</svg>
